<?xml version="1.0" encoding="utf-8"?>
<!-- Generator: Adobe Illustrator 28.0.0, SVG Export Plug-In . SVG Version: 6.00 Build 0)  -->
<svg version="1.1" id="Layer_1" xmlns="http://www.w3.org/2000/svg" xmlns:xlink="http://www.w3.org/1999/xlink" x="0px" y="0px"
	 viewBox="0 0 20 20" style="enable-background:new 0 0 20 20;" xml:space="preserve">
<style type="text/css">
	.st0{fill:#4D4D4D;}
	.st1{fill:#666666;}
	.st2{fill:#808080;}
	.st3{fill:#E60000;}
	.st4{fill:#00E626;}
	.st5{fill:#0000E6;}
	.st6{fill:#E6E6E6;}
</style>
<path class="st0" d="M17.7,20H2.3C1,20,0,19,0,17.7V2.3C0,1,1,0,2.3,0h15.4C19,0,20,1,20,2.3v15.4C20,19,19,20,17.7,20z"/>
<path class="st1" d="M17.4,18.3h-4.6v-5.6h5.7v4.5C18.5,17.8,18,18.3,17.4,18.3z"/>
<path class="st2" d="M18.5,12.7h-5.7V7.2h5.7V12.7z"/>
<path class="st1" d="M18.5,7.2h-5.7V1.6h4.6c0.6,0,1.1,0.5,1.1,1.1V7.2z"/>
<path class="st2" d="M12.8,7.2H7.2V1.6h5.7V7.2z"/>
<path class="st1" d="M7.2,7.2H1.5V2.7c0-0.6,0.5-1.1,1.1-1.1h4.6V7.2z"/>
<path class="st2" d="M7.2,12.7H1.5V7.2h5.7V12.7z"/>
<path class="st1" d="M7.2,18.3H2.6c-0.6,0-1.1-0.5-1.1-1.1v-4.5h5.7V18.3L7.2,18.3z"/>
<path class="st1" d="M12.8,12.7H7.2V7.2h5.7V12.7z"/>
<path class="st2" d="M12.8,18.3H7.2v-5.6h5.7V18.3z"/>
<circle class="st3" cx="4.2" cy="9.9" r="1.3"/>
<circle class="st4" cx="10.1" cy="4.4" r="1.3"/>
<circle class="st5" cx="15.8" cy="9.9" r="1.3"/>
<circle class="st6" cx="10.1" cy="15.5" r="1.3"/>
</svg>
