<?xml version="1.0" encoding="utf-8"?>
<!-- Generator: Adobe Illustrator 28.0.0, SVG Export Plug-In . SVG Version: 6.00 Build 0)  -->
<svg version="1.1" id="Layer_1" xmlns="http://www.w3.org/2000/svg" xmlns:xlink="http://www.w3.org/1999/xlink" x="0px" y="0px"
	 viewBox="0 0 20 20" style="enable-background:new 0 0 20 20;" xml:space="preserve">
<style type="text/css">
	.st0{fill:#CCCCCC;}
	.st1{fill:none;stroke:#CCCCCC;stroke-miterlimit:10;}
	.st2{fill:#B3B3B3;stroke:#CCCCCC;stroke-width:0.5;stroke-miterlimit:10;}
</style>
<path class="st0" d="M17.9,19.2h-3.2c-0.6,0-1.1-0.5-1.1-1.1v-3.2c0-0.6,0.5-1.1,1.1-1.1h3.2c0.6,0,1.1,0.5,1.1,1.1v3.2
	C19,18.7,18.5,19.2,17.9,19.2z"/>
<path class="st0" d="M5.3,19.2H2.1c-0.6,0-1.1-0.5-1.1-1.1v-3.2c0-0.6,0.5-1.1,1.1-1.1h3.2c0.6,0,1.1,0.5,1.1,1.1v3.2
	C6.5,18.7,6,19.2,5.3,19.2z"/>
<path class="st0" d="M11.6,19.2H8.4c-0.6,0-1.1-0.5-1.1-1.1v-3.2c0-0.6,0.5-1.1,1.1-1.1h3.2c0.6,0,1.1,0.5,1.1,1.1v3.2
	C12.8,18.7,12.2,19.2,11.6,19.2z"/>
<path class="st0" d="M11.9,7.4H8.1c-0.7,0-1.3-0.6-1.3-1.3V2.2c0-0.7,0.6-1.3,1.3-1.3h3.8c0.7,0,1.3,0.6,1.3,1.3v3.9
	C13.2,6.8,12.8,7.4,11.9,7.4z"/>
<g id="Layer_2">
	<line class="st1" x1="3.6" y1="18.1" x2="3.6" y2="10.9"/>
	<line class="st1" x1="3.6" y1="10.9" x2="9.9" y2="10.9"/>
	<ellipse class="st2" cx="3.6" cy="10.9" rx="0.3" ry="0.3"/>
	<line class="st1" x1="16.4" y1="18" x2="16.4" y2="10.9"/>
	<line class="st1" x1="16.4" y1="10.9" x2="10.1" y2="10.9"/>
	<line class="st1" x1="10" y1="13.9" x2="10" y2="7.1"/>
	<ellipse class="st2" cx="16.4" cy="10.9" rx="0.3" ry="0.3"/>
</g>
</svg>
