<?xml version="1.0" encoding="utf-8"?>
<!-- Generator: Adobe Illustrator 28.0.0, SVG Export Plug-In . SVG Version: 6.00 Build 0)  -->
<svg version="1.1" id="Layer_1" xmlns:serif="http://www.serif.com/"
	 xmlns="http://www.w3.org/2000/svg" xmlns:xlink="http://www.w3.org/1999/xlink" x="0px" y="0px" viewBox="0 0 1067 1080"
	 style="enable-background:new 0 0 1067 1080;" xml:space="preserve">
<style type="text/css">
	.st0{fill:none;stroke:#999999;stroke-width:54;stroke-linecap:round;stroke-linejoin:round;stroke-miterlimit:81;}
	.st1{fill:#4D4D4D;stroke:#999999;stroke-width:27;stroke-miterlimit:10;}
</style>
<g id="Layer_2_00000069382460447666993580000007822506867223318693_" transform="matrix(1,0,0,1,0,-0.0128487)">
	<path class="st0" d="M535.5,389.1l-0.8,345.1l0.3-125.2l340.1-0.3v124.8"/>
	<path class="st0" d="M535.1,609l-339.9,0.4v124.1"/>
</g>
<path class="st1" d="M961.6,1036.8H788.8c-32.4,0-59.4-27-59.4-59.4V804.6c0-32.4,27-59.4,59.4-59.4h172.8c32.4,0,59.4,27,59.4,59.4
	v172.8C1021,1009.8,994,1036.8,961.6,1036.8z"/>
<path class="st1" d="M281.2,1036.8H108.4c-32.4,0-59.4-27-59.4-59.4V804.6c0-32.4,27-59.4,59.4-59.4h172.8c32.4,0,59.4,27,59.4,59.4
	v172.8C346,1009.8,319,1036.8,281.2,1036.8z"/>
<path class="st1" d="M621.4,1036.8H448.6c-32.4,0-59.4-27-59.4-59.4V804.6c0-32.4,27-59.4,59.4-59.4h172.8c32.4,0,59.4,27,59.4,59.4
	v172.8C686.2,1009.8,653.8,1036.8,621.4,1036.8z"/>
<path class="st1" d="M637.6,399.6H432.4c-37.8,0-70.2-32.4-70.2-70.2V118.8c0-37.8,32.4-70.2,70.2-70.2h205.2
	c37.8,0,70.2,32.4,70.2,70.2v210.6C707.8,367.2,686.2,399.6,637.6,399.6z"/>
</svg>
