<?xml version="1.0" encoding="utf-8"?>
<!-- Generator: Adobe Illustrator 28.0.0, SVG Export Plug-In . SVG Version: 6.00 Build 0)  -->
<svg version="1.1" id="Layer_1" xmlns="http://www.w3.org/2000/svg" xmlns:xlink="http://www.w3.org/1999/xlink" x="0px" y="0px"
	 viewBox="0 0 20 20" style="enable-background:new 0 0 20 20;" xml:space="preserve">
<style type="text/css">
	.st0{fill:#999999;stroke:#CCCCCC;stroke-width:0.5;stroke-miterlimit:10;}
</style>
<path class="st0" d="M18,19.2h-3.3c-0.6,0-1.1-0.5-1.1-1.1v-3.2c0-0.6,0.5-1.1,1.1-1.1H18c0.6,0,1.1,0.5,1.1,1.1v3.2
	C19.1,18.7,18.6,19.2,18,19.2z"/>
<path class="st0" d="M5.2,19.2H2c-0.6,0-1.1-0.5-1.1-1.1v-3.2c0-0.6,0.5-1.1,1.1-1.1h3.3c0.6,0,1.1,0.5,1.1,1.1v3.2
	C6.3,18.7,5.9,19.2,5.2,19.2z"/>
<path class="st0" d="M11.6,19.2H8.4c-0.6,0-1.1-0.5-1.1-1.1v-3.2c0-0.6,0.5-1.1,1.1-1.1h3.3c0.6,0,1.1,0.5,1.1,1.1v3.2
	C12.7,18.7,12.2,19.2,11.6,19.2z"/>
<path class="st0" d="M18,12.8h-3.3c-0.6,0-1.1-0.5-1.1-1.1V8.5c0-0.6,0.5-1.1,1.1-1.1H18c0.6,0,1.1,0.5,1.1,1.1v3.2
	C19.1,12.3,18.6,12.8,18,12.8z"/>
<path class="st0" d="M5.2,12.8H2c-0.6,0-1.1-0.5-1.1-1.1V8.5c0-0.6,0.5-1.1,1.1-1.1h3.3c0.6,0,1.1,0.5,1.1,1.1v3.2
	C6.3,12.3,5.9,12.8,5.2,12.8z"/>
<path class="st0" d="M11.6,12.8H8.4c-0.6,0-1.1-0.5-1.1-1.1V8.5c0-0.6,0.5-1.1,1.1-1.1h3.3c0.6,0,1.1,0.5,1.1,1.1v3.2
	C12.7,12.3,12.2,12.8,11.6,12.8z"/>
<path class="st0" d="M18,6.4h-3.3c-0.6,0-1.1-0.5-1.1-1.1V2.1c0-0.6,0.5-1.1,1.1-1.1H18c0.6,0,1.1,0.5,1.1,1.1v3.2
	C19.1,5.9,18.6,6.4,18,6.4z"/>
<path class="st0" d="M5.2,6.4H2c-0.6,0-1.1-0.5-1.1-1.1V2.1C0.9,1.5,1.4,1,2,1h3.3c0.6,0,1.1,0.5,1.1,1.1v3.2
	C6.4,5.9,5.9,6.4,5.2,6.4z"/>
<path class="st0" d="M11.6,6.4H8.4c-0.6,0-1.1-0.5-1.1-1.1V2.1C7.3,1.5,7.8,1,8.4,1h3.3c0.6,0,1.1,0.5,1.1,1.1v3.2
	C12.8,5.9,12.2,6.4,11.6,6.4z"/>
</svg>
