<?xml version="1.0" encoding="utf-8"?>
<!-- Generator: Adobe Illustrator 28.0.0, SVG Export Plug-In . SVG Version: 6.00 Build 0)  -->
<svg version="1.1" id="Layer_1" xmlns="http://www.w3.org/2000/svg" xmlns:xlink="http://www.w3.org/1999/xlink" x="0px" y="0px"
	 viewBox="0 0 1200 1200" style="enable-background:new 0 0 1200 1200;" xml:space="preserve">
<style type="text/css">
	.st0{fill:#999999;}
	.st1{fill:#4D4D4D;}
</style>
<g>
	<path class="st0" d="M491.3,667.3 M799.7,960.2c-80.8,25.6-185.5-70.1-252.9-221.8c26.6,29,59.3,43,88.2,33.8
		c48.2-15.3,67.8-88.9,43.9-164.4c-23.9-75.5-82.4-124.3-130.5-109.1c-28.9,9.2-47.6,39.4-52.7,78.5c-32.3-162.8-1.8-301.4,78.9-327
		c94.1-29.8,220.7,105,282.8,301C919.6,747.3,893.7,930.4,799.7,960.2z"/>
	<path class="st1" d="M459,677.5c-40.2-126.9-51.7-255-32.2-360.7c11.3-61.4,32.5-111.9,61.9-149.3C382.5,239,353.3,458,426.2,687.9
		S649,1080,777,1077.4c-45.7-13.6-92.1-42.7-136.7-86.4C563.6,915.7,499.2,804.4,459,677.5z"/>
	<path class="st1" d="M980.9,512.1C900.3,257.8,725.3,86.3,590.1,129.2C454.9,172,410.7,412.9,491.3,667.3
		c80.6,254.3,255.6,425.8,390.8,382.9C1017.3,1007.4,1061.5,766.5,980.9,512.1z M799.7,960.2c-80.8,25.6-185.5-70.1-252.9-221.8
		c26.6,29,59.3,43,88.2,33.8c48.2-15.3,67.8-88.9,43.9-164.4c-23.9-75.5-82.4-124.3-130.5-109.1c-28.9,9.2-47.6,39.4-52.7,78.5
		c-32.3-162.8-1.8-301.4,78.9-327c94.1-29.8,220.7,105,282.8,301C919.6,747.3,893.7,930.4,799.7,960.2z"/>
	<path class="st1" d="M266.8,738.4c-25-78.7-32-158.5-19.9-224.4c6.5-35.4,18.3-65.3,34.7-88.8c-7.4,2.4-13.7,4.3-18.1,5.7
		c-82.3,26.1-109.2,172.8-60.2,327.6c49.1,154.8,155.6,259.2,237.9,233.1c4.4-1.4,10.7-3.4,18.1-5.7c-26.9-9.7-53.8-27.4-79.5-52.6
		C331.9,886.4,291.8,817.2,266.8,738.4z"/>
	<path class="st1" d="M353.7,402.6c-77.9,30.9-102.5,174.3-54.6,325.6s150.7,254.4,232.2,234.7c-57.3-71.2-105.2-163-137.4-264.7
		S347.9,493.8,353.7,402.6z"/>
</g>
</svg>
