<?xml version="1.0" encoding="utf-8"?>
<!-- Generator: Adobe Illustrator 28.0.0, SVG Export Plug-In . SVG Version: 6.00 Build 0)  -->
<svg version="1.1" id="Layer_1" xmlns:serif="http://www.serif.com/"
	 xmlns="http://www.w3.org/2000/svg" xmlns:xlink="http://www.w3.org/1999/xlink" x="0px" y="0px" viewBox="0 0 1056 1080"
	 style="enable-background:new 0 0 1056 1080;" xml:space="preserve">
<style type="text/css">
	.st0{fill:#4D4D4D;}
	.st1{fill:#666666;}
	.st2{fill:#808080;}
	.st3{fill:none;stroke:#999999;stroke-width:66.9857;stroke-miterlimit:128.5714;}
</style>
<path class="st0" d="M839.1,1033.3h-225c-42.9,0-75-37.5-75-75v-225c0-42.9,37.5-75,75-75h225c42.9,0,75,37.5,75,75V953
	C914.1,995.8,882,1033.3,839.1,1033.3z"/>
<path class="st1" d="M582,1033.3H378.4c-37.5,0-69.6-32.1-69.6-69.6V760.1c0-37.5,32.1-69.6,69.6-69.6H582
	c37.5,0,69.6,32.1,69.6,69.6v198.2C657,1001.2,619.5,1033.3,582,1033.3z"/>
<path class="st2" d="M367.7,1033.3H196.3c-32.1,0-58.9-26.8-58.9-58.9V803c0-32.1,26.8-58.9,58.9-58.9h166.1
	c37.5,0,64.3,26.8,64.3,58.9v166C426.6,1006.5,405.2,1033.3,367.7,1033.3z"/>
<path class="st3" d="M383.8,422.7L528.4,562l139.3-144.6"/>
<path class="st2" d="M948.9,332.1H777.5c-32.1,0-58.9-26.8-58.9-58.9V101.8c0-32.1,26.8-58.9,58.9-58.9h171.4
	c32.1,0,58.9,26.8,58.9,58.9v166.1C1007.9,305.4,981.1,332.1,948.9,332.1z"/>
<path class="st2" d="M273.9,332.1H102.5c-32.1,0-58.9-26.8-58.9-58.9V101.8c0-32.1,26.8-58.9,58.9-58.9h166.1
	c37.5,0,64.3,26.8,64.3,58.9v166.1C332.9,305.4,311.4,332.1,273.9,332.1z"/>
<path class="st2" d="M611.4,332.1H440c-32.1,0-58.9-26.8-58.9-58.9V101.8c0-32.1,26.8-58.9,58.9-58.9h171.4
	c32.1,0,58.9,26.8,58.9,58.9v166.1C675.7,305.4,643.6,332.1,611.4,332.1z"/>
</svg>
