<?xml version="1.0" encoding="utf-8"?>
<!-- Generator: Adobe Illustrator 28.0.0, SVG Export Plug-In . SVG Version: 6.00 Build 0)  -->
<svg version="1.1" id="Layer_1" xmlns="http://www.w3.org/2000/svg" xmlns:xlink="http://www.w3.org/1999/xlink" x="0px" y="0px"
	 viewBox="0 0 20 20" style="enable-background:new 0 0 20 20;" xml:space="preserve">
<style type="text/css">
	.st0{fill:none;stroke:#999999;stroke-width:1.25;stroke-miterlimit:10;}
	.st1{fill:#808080;}
</style>
<polyline class="st0" points="7.3,8.4 10,11 12.6,8.3 "/>
<path class="st1" d="M17.9,19.2h-3.2c-0.6,0-1.1-0.5-1.1-1.1v-3.2c0-0.6,0.5-1.1,1.1-1.1h3.2c0.6,0,1.1,0.5,1.1,1.1V18
	C19,18.7,18.5,19.2,17.9,19.2z"/>
<path class="st1" d="M5.3,19.2H2.1c-0.6,0-1.1-0.5-1.1-1.1v-3.2c0-0.6,0.5-1.1,1.1-1.1h3.1c0.7,0,1.2,0.5,1.2,1.1V18
	C6.4,18.7,6,19.2,5.3,19.2z"/>
<path class="st1" d="M11.6,19.2H8.4c-0.6,0-1.1-0.5-1.1-1.1v-3.2c0-0.6,0.5-1.1,1.1-1.1h3.2c0.6,0,1.1,0.5,1.1,1.1V18
	C12.8,18.7,12.2,19.2,11.6,19.2z"/>
<path class="st1" d="M17.9,6.2H2.1C1.5,6.2,1,5.7,1,5.1V1.9c0-0.6,0.5-1.1,1.1-1.1h15.8c0.6,0,1.1,0.5,1.1,1.1v3.2
	C19,5.7,18.5,6.2,17.9,6.2z"/>
</svg>
